<?xml version="1.0" encoding="UTF-8"?>
<svg xmlns="http://www.w3.org/2000/svg" xmlns:xlink="http://www.w3.org/1999/xlink" width="40px" height="40px" viewBox="100 200 850 850" version="1.1">
<g id="surface1">
<path style=" stroke:none;fill-rule:nonzero;fill:rgb(100%,100%,100%);fill-opacity:1;" d="M 621.300781 277.355469 L 279.726562 277.355469 L 163.464844 408.335938 L 163.464844 408.636719 L 414.613281 698.835938 L 512.550781 811.789062 L 621.300781 685.617188 L 860.734375 408.636719 L 860.734375 408.335938 L 744.171875 277.355469 Z M 621.300781 277.355469 "/>
<path style=" stroke:none;fill-rule:evenodd;fill:rgb(0%,29.019609%,67.843139%);fill-opacity:1;" d="M 397.488281 631.84375 L 353.328125 580.773438 L 353.328125 479.832031 L 304.960938 479.832031 L 304.960938 425.457031 L 353.328125 425.457031 L 353.328125 368.378906 L 317.578125 368.378906 L 278.527344 413.140625 L 278.824219 493.953125 L 204.925781 409.535156 C 218.441406 393.914062 265.308594 339.539062 294.449219 308.296875 L 397.488281 308.296875 Z M 494.527344 368.378906 L 494.527344 743.894531 L 430.234375 669.695312 L 430.835938 308.597656 L 556.113281 308.597656 C 584.050781 308.597656 605.378906 332.929688 605.378906 365.375 L 605.378906 397.820312 L 548.898438 397.820312 L 548.898438 368.378906 Z M 605.078125 424.554688 L 605.078125 430.265625 C 605.078125 459.402344 587.054688 480.734375 562.421875 480.734375 L 529.074219 480.734375 L 529.074219 424.554688 Z M 528.773438 747.5 L 528.773438 506.871094 L 605.078125 506.871094 L 605.378906 659.179688 Z M 679.582031 424.554688 L 809.0625 424.257812 L 639.324219 619.222656 L 639.324219 509.875 L 658.253906 509.875 L 694.902344 468.117188 L 639.324219 467.816406 L 639.324219 308.296875 L 731.554688 308.296875 L 809.664062 397.820312 L 739.664062 397.820312 L 714.128906 368.378906 L 679.582031 368.378906 Z M 679.582031 424.554688 "/>
<path style=" stroke:none;fill-rule:nonzero;fill:rgb(0%,29.019609%,67.843139%);fill-opacity:1;" d="M 204.925781 409.535156 L 278.824219 493.953125 L 278.527344 413.140625 L 317.578125 368.378906 L 353.328125 368.378906 L 353.328125 425.457031 L 304.960938 425.457031 L 304.960938 479.832031 L 353.328125 479.832031 L 353.328125 580.773438 L 397.488281 631.84375 L 397.488281 308.296875 L 294.449219 308.296875 C 265.308594 339.539062 218.441406 393.914062 204.925781 409.535156 Z M 204.925781 409.535156 "/>
<path style=" stroke:none;fill-rule:nonzero;fill:rgb(0%,29.019609%,67.843139%);fill-opacity:1;" d="M 548.898438 397.820312 L 605.378906 397.820312 L 605.378906 365.375 C 605.378906 332.929688 584.050781 308.597656 556.113281 308.597656 L 430.835938 308.597656 L 430.234375 669.695312 L 494.527344 743.894531 L 494.527344 368.378906 L 548.898438 368.378906 Z M 548.898438 397.820312 "/>
<path style=" stroke:none;fill-rule:nonzero;fill:rgb(0%,29.019609%,67.843139%);fill-opacity:1;" d="M 739.964844 397.820312 L 809.964844 397.820312 L 731.855469 308.296875 L 639.625 308.296875 L 639.625 467.816406 L 695.203125 468.117188 L 658.554688 509.574219 L 639.625 509.875 L 639.625 619.222656 L 809.363281 424.257812 L 679.882812 424.257812 L 679.882812 368.378906 L 714.429688 368.378906 Z M 739.964844 397.820312 "/>
<path style=" stroke:none;fill-rule:nonzero;fill:rgb(0%,29.019609%,67.843139%);fill-opacity:1;" d="M 529.074219 506.570312 L 529.074219 747.5 L 605.378906 659.179688 L 605.078125 506.570312 Z M 529.074219 506.570312 "/>
<path style=" stroke:none;fill-rule:nonzero;fill:rgb(0%,29.019609%,67.843139%);fill-opacity:1;" d="M 529.074219 480.734375 L 562.421875 480.734375 C 587.054688 480.734375 605.078125 459.40625 605.078125 430.265625 L 605.078125 424.554688 L 529.074219 424.554688 Z M 529.074219 480.734375 "/>
<path style=" stroke:none;fill-rule:evenodd;fill:rgb(0%,29.019609%,67.843139%);fill-opacity:1;" d="M 903.992188 397.820312 C 906.699219 400.824219 907.898438 404.730469 908.199219 408.335938 C 908.199219 411.941406 906.996094 415.542969 904.894531 418.546875 L 890.777344 434.46875 L 621.300781 746.601562 L 542.59375 837.625 L 522.464844 861.058594 C 516.757812 865.5625 508.34375 865.5625 502.335938 860.757812 L 482.511719 837.625 L 414.613281 759.519531 L 133.425781 434.46875 L 119.003906 418.546875 C 116.902344 415.542969 116 411.941406 116 408.335938 C 116.300781 404.730469 117.503906 400.824219 120.207031 397.820312 L 133.722656 382.496094 L 249.984375 251.519531 L 256.894531 243.707031 C 260.199219 240.101562 264.707031 238 269.515625 238 L 754.6875 238 C 759.492188 238 764 240.101562 767.304688 243.707031 L 774.214844 251.519531 L 890.472656 382.496094 Z M 860.734375 408.632812 L 744.472656 277.355469 L 279.726562 277.355469 L 163.464844 408.632812 L 414.613281 698.835938 L 512.550781 811.789062 L 621.300781 685.617188 Z M 860.734375 408.632812 "/>
</g>
</svg>
